<svg xmlns="http://www.w3.org/2000/svg" width="68" height="60" viewBox="0 0 67.98 60"><defs><style>.cls-1{fill:#fff;}</style></defs><title>carousel__prev_1</title><g id="Layer_2" data-name="Layer 2"><g id="Layer_1-2" data-name="Layer 1"><path class="cls-1" d="M9,23V5a4,4,0,0,1,4-4H63a4,4,0,0,1,4,4V55a4,4,0,0,1-4,4H13a4,4,0,0,1-4-4V37H8V55a5,5,0,0,0,5,5H63a5,5,0,0,0,5-5V5a5,5,0,0,0-5-5H13A5,5,0,0,0,8,5V23Z"/><path class="cls-1" d="M16,30.5H5v3L0,30l5-3.49v3H16Z"/><path class="cls-1" d="M29.28,23.16v3.9H27.63V16.64h3.62a7.67,7.67,0,0,1,2,.23,4.2,4.2,0,0,1,1.43.65,2.65,2.65,0,0,1,.84,1,3,3,0,0,1,.28,1.33,3,3,0,0,1-.3,1.33,2.9,2.9,0,0,1-.88,1,4.28,4.28,0,0,1-1.44.68,7.25,7.25,0,0,1-2,.24Zm0-1.12h2a4.38,4.38,0,0,0,1.26-.16,2.67,2.67,0,0,0,.91-.45,1.91,1.91,0,0,0,.56-.68,2.14,2.14,0,0,0,.19-.88,1.84,1.84,0,0,0-.73-1.56,3.56,3.56,0,0,0-2.19-.56h-2Z"/><path class="cls-1" d="M42.25,22.71v4.35h-1.6V16.64H44a7.93,7.93,0,0,1,1.94.2,3.65,3.65,0,0,1,1.35.58,2.28,2.28,0,0,1,.79.91,2.7,2.7,0,0,1-.52,3.09,3.47,3.47,0,0,1-.91.65,4.8,4.8,0,0,1-1.23.41,1.68,1.68,0,0,1,.53.44l3.45,4.14H48a.71.71,0,0,1-.64-.3L44.26,23a.77.77,0,0,0-.3-.25,1.26,1.26,0,0,0-.5-.08Zm0-1h1.67a4.63,4.63,0,0,0,1.24-.15,2.55,2.55,0,0,0,.89-.43,1.69,1.69,0,0,0,.54-.65,1.9,1.9,0,0,0,.18-.83,1.61,1.61,0,0,0-.69-1.41A3.79,3.79,0,0,0,44,17.75H42.25Z"/><path class="cls-1" d="M35,32.22v1.15H29.13v3.46H33.9v1.11H29.13v3.55H35v1.15H27.45V32.22Z"/><path class="cls-1" d="M38.62,32.22H39.9a.56.56,0,0,1,.35.1.57.57,0,0,1,.19.24l3.35,7.35a3.38,3.38,0,0,1,.21.54c.07.19.13.39.19.6.05-.21.1-.41.16-.6a3.39,3.39,0,0,1,.2-.54l3.33-7.35a.62.62,0,0,1,.2-.23.56.56,0,0,1,.35-.11h1.29L44.89,42.64H43.44Z"/></g></g></svg>