<svg xmlns="http://www.w3.org/2000/svg" width="62" height="41" viewBox="0 0 62 41"><g><g><path d="M13.61 14.909c7.483 0 13.549 5.84 13.549 13.045S21.093 41 13.609 41C6.128 41 .06 35.158.06 27.953L0 26.09C0 11.68 12.132 0 27.098 0v7.455c-5.17 0-10.03 1.938-13.686 5.458a19.117 19.117 0 0 0-1.926 2.156c.692-.104 1.401-.16 2.124-.16zm34.84 0c7.484 0 13.55 5.84 13.55 13.045S55.934 41 48.45 41c-7.482 0-13.549-5.841-13.549-13.046l-.06-1.864C34.84 11.68 46.973 0 61.939 0v7.455c-5.17 0-10.03 1.938-13.686 5.458a19.13 19.13 0 0 0-1.926 2.156c.692-.104 1.401-.16 2.124-.16z"/><path fill="#30a3f0" d="M13.61 14.909c7.483 0 13.549 5.84 13.549 13.045S21.093 41 13.609 41C6.128 41 .06 35.158.06 27.953L0 26.09C0 11.68 12.132 0 27.098 0v7.455c-5.17 0-10.03 1.938-13.686 5.458a19.117 19.117 0 0 0-1.926 2.156c.692-.104 1.401-.16 2.124-.16zm34.84 0c7.484 0 13.55 5.84 13.55 13.045S55.934 41 48.45 41c-7.482 0-13.549-5.841-13.549-13.046l-.06-1.864C34.84 11.68 46.973 0 61.939 0v7.455c-5.17 0-10.03 1.938-13.686 5.458a19.13 19.13 0 0 0-1.926 2.156c.692-.104 1.401-.16 2.124-.16z"/></g></g></svg>