<?xml version="1.0" encoding="utf-8"?>
<!-- Generator: Adobe Illustrator 23.0.2, SVG Export Plug-In . SVG Version: 6.00 Build 0)  -->
<svg version="1.1" id="Layer_1" xmlns="http://www.w3.org/2000/svg" xmlns:xlink="http://www.w3.org/1999/xlink" x="0px" y="0px"
	 viewBox="0 0 20 20" style="enable-background:new 0 0 20 20;" xml:space="preserve">
<title>wifi</title>
<path d="M18.2,20c-1,0-1.8-0.8-1.8-1.7c0,0,0,0,0,0c0-8.1-6.6-14.7-14.7-14.7C0.8,3.5,0,2.7,0,1.8C0,0.8,0.8,0,1.8,0
	c4.8,0,9.5,1.9,12.9,5.3c3.4,3.4,5.4,8,5.3,12.9C20,19.2,19.2,20,18.2,20z"/>
<path d="M12.3,20c-1,0-1.8-0.8-1.8-1.8l0,0c0-4.8-4-8.7-8.8-8.7C0.8,9.5,0,8.7,0,7.8C0,6.8,0.8,6,1.8,6c6.8,0,12.3,5.5,12.3,12.3
	C14,19.2,13.2,20,12.3,20z"/>
<circle cx="3.5" cy="16.5" r="3.5"/>
</svg>
