<svg xmlns="http://www.w3.org/2000/svg" width="68" height="60" viewBox="0 0 67.98 60"><defs><style>.cls-1{fill:#fff}</style></defs><g id="Layer_2" data-name="Layer 2"><g id="Layer_1-2" data-name="Layer 1"><path class="cls-1" d="M9 23V5a4 4 0 014-4h50a4 4 0 014 4v50a4 4 0 01-4 4H13a4 4 0 01-4-4V37H8v18a5 5 0 005 5h50a5 5 0 005-5V5a5 5 0 00-5-5H13a5 5 0 00-5 5v18z"/><path class="cls-1" d="M16 30.5H5v3L0 30l5-3.49v3h11zm13.28-7.34v3.9h-1.65V16.64h3.62a7.67 7.67 0 012 .23 4.2 4.2 0 011.43.65 2.65 2.65 0 01.84 1 3 3 0 01.28 1.33 3 3 0 01-.3 1.33 2.9 2.9 0 01-.88 1 4.28 4.28 0 01-1.44.68 7.25 7.25 0 01-2 .24zm0-1.12h2a4.38 4.38 0 001.26-.16 2.67 2.67 0 00.91-.45 1.91 1.91 0 00.56-.68 2.14 2.14 0 00.19-.88 1.84 1.84 0 00-.73-1.56 3.56 3.56 0 00-2.19-.56h-2zm12.97.67v4.35h-1.6V16.64H44a7.93 7.93 0 011.94.2 3.65 3.65 0 011.35.58 2.28 2.28 0 01.79.91 2.7 2.7 0 01-.52 3.09 3.47 3.47 0 01-.91.65 4.8 4.8 0 01-1.23.41 1.68 1.68 0 01.53.44l3.45 4.14H48a.71.71 0 01-.64-.3L44.26 23a.77.77 0 00-.3-.25 1.26 1.26 0 00-.5-.08zm0-1h1.67a4.63 4.63 0 001.24-.15 2.55 2.55 0 00.89-.43 1.69 1.69 0 00.54-.65 1.9 1.9 0 00.18-.83 1.61 1.61 0 00-.69-1.41 3.79 3.79 0 00-2.08-.49h-1.75zM35 32.22v1.15h-5.87v3.46h4.77v1.11h-4.77v3.55H35v1.15h-7.55V32.22zm3.62 0h1.28a.56.56 0 01.35.1.57.57 0 01.19.24l3.35 7.35a3.38 3.38 0 01.21.54c.07.19.13.39.19.6.05-.21.1-.41.16-.6a3.39 3.39 0 01.2-.54l3.33-7.35a.62.62 0 01.2-.23.56.56 0 01.35-.11h1.29l-4.83 10.42h-1.45z"/></g></g></svg>