<svg xmlns="http://www.w3.org/2000/svg" width="44" height="49" viewBox="0 0 44 49"><defs><linearGradient id="a" x1="35.91" x2="8" y1="49" y2="0" gradientUnits="userSpaceOnUse"><stop offset="0" stop-color="#2185c7"/><stop offset="1" stop-color="#87c9f5"/></linearGradient><linearGradient id="b" x1="25.45" x2="18.47" y1="26.51" y2="15.51" gradientUnits="userSpaceOnUse"><stop offset="0" stop-color="#2185c7"/><stop offset="1" stop-color="#87c9f5"/></linearGradient></defs><path d="M34.5 38.535c-3.324 4.18-7.496 7.664-12.544 10.463-5.047-2.799-9.239-6.271-12.544-10.463C3.01 30.415-.115 20.027.004 7.364c3.524-.518 7.019-1.387 10.513-2.556 3.495-1.168 7.318-2.772 11.44-4.81 4.122 2.038 7.915 3.642 11.409 4.81 3.494 1.169 7.019 2.038 10.543 2.556.12 12.745-3.025 23.147-9.408 31.171z"/><path fill="url(#a)" d="M34.5 38.535c-3.324 4.18-7.496 7.664-12.544 10.463-5.047-2.799-9.239-6.271-12.544-10.463C3.01 30.415-.115 20.027.004 7.364c3.524-.518 7.019-1.387 10.513-2.556 3.495-1.168 7.318-2.772 11.44-4.81 4.122 2.038 7.915 3.642 11.409 4.81 3.494 1.169 7.019 2.038 10.543 2.556.12 12.745-3.025 23.147-9.408 31.171z"/><g fill="#fff"><path d="M21.965 10.013c6.064 0 10.98 4.925 10.98 11 0 6.074-4.916 10.999-10.98 10.999-6.063 0-10.98-4.925-10.98-11 0-6.074 4.917-10.999 10.98-10.999z"/><path d="M21.965 10.013c6.064 0 10.98 4.925 10.98 11 0 6.074-4.916 10.999-10.98 10.999-6.063 0-10.98-4.925-10.98-11 0-6.074 4.917-10.999 10.98-10.999z"/></g><path fill="#fff" d="M21.96 15.506a5.495 5.495 0 015.49 5.5c0 3.037-2.458 5.5-5.49 5.5a5.495 5.495 0 01-5.49-5.5c0-3.037 2.458-5.5 5.49-5.5z"/><path fill="url(#b)" d="M21.96 15.506a5.495 5.495 0 015.49 5.5c0 3.037-2.458 5.5-5.49 5.5a5.495 5.495 0 01-5.49-5.5c0-3.037 2.458-5.5 5.49-5.5z"/></svg>